<svg width="80" height="64" viewBox="0 0 80 64" fill="none" xmlns="http://www.w3.org/2000/svg">
<path d="M34 44H33.35C33.075 43.0838 32.7162 42.215 32.2687 41.3887L32.7275 40.93C33.5088 40.1488 33.5088 38.8825 32.7275 38.1012L29.8988 35.2725C29.1175 34.4912 27.8512 34.4912 27.07 35.2725L26.6112 35.7313C25.78 35.2828 24.905 34.9205 24 34.65V34C24 32.895 23.105 32 22 32H18C16.895 32 16 32.895 16 34V34.65C15.0837 34.925 14.215 35.2838 13.3888 35.7313L12.93 35.2725C12.1488 34.4912 10.8825 34.4912 10.1012 35.2725L7.2725 38.1C6.49125 38.8812 6.49125 40.1475 7.2725 40.9287L7.73125 41.3875C7.28277 42.2188 6.92047 43.0938 6.65 43.9987H6C4.895 43.9987 4 44.8937 4 45.9987V49.9987C4 51.1037 4.895 51.9987 6 51.9987H6.65C6.925 52.915 7.28375 53.7838 7.73125 54.61L7.2725 55.0687C6.49125 55.85 6.49125 57.1162 7.2725 57.8975L10.1012 60.7262C10.8825 61.5075 12.1488 61.5075 12.93 60.7262L13.3888 60.2675C14.215 60.7138 15.085 61.0737 16.0012 61.3488V61.9987C16.0012 63.1037 16.8962 63.9987 18.0012 63.9987H22.0012C23.1062 63.9987 24.0012 63.1037 24.0012 61.9987V61.3488C24.9175 61.0737 25.7863 60.715 26.6138 60.2675L27.0725 60.7262C27.8538 61.5075 29.12 61.5075 29.9013 60.7262L32.73 57.8975C33.5112 57.1162 33.5112 55.85 32.73 55.0687L32.2713 54.61C32.7197 53.7787 33.082 52.9037 33.3525 51.9987H34.0025C35.1075 51.9987 36.0025 51.1037 36.0025 49.9987V45.9987C36 44.895 35.105 44 34 44ZM20 56C15.5813 56 12 52.4188 12 48C12 43.5812 15.5813 40 20 40C24.4188 40 28 43.5812 28 48C28 52.4188 24.4188 56 20 56ZM74 44H73.35C73.075 43.0838 72.7163 42.215 72.2688 41.3887L72.7275 40.93C73.5088 40.1488 73.5088 38.8825 72.7275 38.1012L69.8988 35.2725C69.1175 34.4912 67.8512 34.4912 67.07 35.2725L66.6113 35.7313C65.78 35.2828 64.905 34.9205 64 34.65V34C64 32.895 63.105 32 62 32H58C56.895 32 56 32.895 56 34V34.65C55.0838 34.925 54.215 35.2838 53.3887 35.7313L52.93 35.2725C52.1488 34.4912 50.8825 34.4912 50.1012 35.2725L47.2725 38.1012C46.4912 38.8825 46.4912 40.1488 47.2725 40.93L47.7313 41.3887C47.2828 42.22 46.9205 43.095 46.65 44H46C44.895 44 44 44.895 44 46V50C44 51.105 44.895 52 46 52H46.65C46.925 52.9162 47.2838 53.785 47.7313 54.6113L47.2725 55.07C46.4912 55.8512 46.4912 57.1175 47.2725 57.8988L50.1012 60.7275C50.8825 61.5088 52.1488 61.5088 52.93 60.7275L53.3887 60.2687C54.215 60.715 55.085 61.075 56.0013 61.35V62C56.0013 63.105 56.8963 64 58.0013 64H62.0013C63.1063 64 64.0013 63.105 64.0013 62V61.35C64.9175 61.075 65.7862 60.7162 66.6137 60.2687L67.0725 60.7275C67.8538 61.5088 69.12 61.5088 69.9013 60.7275L72.73 57.8988C73.5113 57.1175 73.5113 55.8512 72.73 55.07L72.2712 54.6113C72.7197 53.78 73.082 52.905 73.3525 52H74.0025C75.1075 52 76.0025 51.105 76.0025 50V46C76 44.895 75.105 44 74 44ZM60 56C55.5812 56 52 52.4188 52 48C52 43.5812 55.5812 40 60 40C64.4187 40 68 43.5812 68 48C68 52.4188 64.4187 56 60 56ZM78 30H76V20C76 17.7913 74.2087 16 72 16H62.8L52.4012 3.0025C51.6519 2.06566 50.7014 1.30937 49.6202 0.78963C48.539 0.269893 47.3547 2.21917e-05 46.155 0L32 0C29.7913 0 28 1.79125 28 4V16H8C5.79125 16 4 17.7913 4 20V30H2C0.895 30 0 30.895 0 32V34C0 35.105 0.895 36 2 36H4V36.11C5.615 33.9412 7.6525 32.14 10 30.7738V22H70V30.7738C72.3475 32.14 74.385 33.9412 76 36.11V36H78C79.105 36 80 35.105 80 34V32C80 30.895 79.105 30 78 30ZM34 16V6H46.155C46.7663 6 47.335 6.27375 47.7163 6.75L55.1162 16H34Z" fill="#0351C1"/>
</svg>
