<svg width="80" height="64" viewBox="0 0 80 64" fill="none" xmlns="http://www.w3.org/2000/svg">
<path d="M52 43.1127V29.6377C52 28.5502 51.775 27.4877 51.35 26.4877L41.5625 3.63768C40.6125 1.42518 38.45 0.000183105 36.0375 0.000183105H18C14.6875 0.000183105 12 2.68768 12 6.00018V20.0002H6C2.6875 20.0002 0 22.6877 0 26.0002V52.0002C0 58.6252 5.375 64.0002 12 64.0002C18.625 64.0002 24 58.6252 24 52.0002H32C32 58.6252 37.375 64.0002 44 64.0002C50.625 64.0002 56 58.6252 56 52.0002C56 48.4627 54.4375 45.3127 52 43.1127ZM18 6.00018H36.0375L45.8375 28.8502C45.95 29.1002 46 29.3627 46 29.6377V30.0002H30.7625C29.65 30.0002 28.55 29.6252 27.675 28.9377L18 21.3252V6.00018ZM12 58.0002C8.6875 58.0002 6 55.3127 6 52.0002C6 48.6877 8.6875 46.0002 12 46.0002C15.3125 46.0002 18 48.6877 18 52.0002C18 55.3127 15.3125 58.0002 12 58.0002ZM33.6625 46.0002H22.3375C20.2625 42.4252 16.4375 40.0002 12 40.0002C9.8 40.0002 7.775 40.6377 6 41.6627V26.0002H14.2375L23.975 33.6502C25.9 35.1627 28.325 36.0002 30.775 36.0002H46V40.2002C45.35 40.0877 44.6875 40.0002 44 40.0002C39.575 40.0002 35.7375 42.4252 33.6625 46.0002ZM44 58.0002C40.6875 58.0002 38 55.3127 38 52.0002C38 48.6877 40.6875 46.0002 44 46.0002C47.3125 46.0002 50 48.6877 50 52.0002C50 55.3127 47.3125 58.0002 44 58.0002ZM78 50.0002H66V2.00018C66 0.900183 65.1 0.000183105 64 0.000183105H62C60.9 0.000183105 60 0.900183 60 2.00018V54.0002C60 55.1002 60.9 56.0002 62 56.0002H78C79.1 56.0002 80 55.1002 80 54.0002V52.0002C80 50.9002 79.1 50.0002 78 50.0002Z" fill="#0351C1"/>
</svg>
