<svg width="80" height="64" viewBox="0 0 80 64" fill="none" xmlns="http://www.w3.org/2000/svg">
<path d="M35.9995 6C35.9995 9.3125 33.312 12 29.9996 12C26.6871 12 23.9997 9.3125 23.9997 6C23.9997 2.6875 26.6871 0 29.9996 0C33.312 0 35.9995 2.6875 35.9995 6Z" fill="#0351C1"/>
<path fill-rule="evenodd" clip-rule="evenodd" d="M14.4952 29.1338C13.6756 29.0454 12.8431 29 12 29H2C0.895431 29 0 29.8954 0 31V33C0 34.1046 0.895431 35 2 35H12C21.3888 35 29 42.6112 29 52C29 53.1046 29.8954 54 31 54H33C34.1046 54 35 53.1046 35 52C35 51.3262 34.971 50.6591 34.9142 50H45.0858C45.029 50.6591 45 51.3262 45 52C45 53.1046 45.8954 54 47 54H49C50.1046 54 51 53.1046 51 52C51 42.6112 58.6112 35 68 35H78C79.1046 35 80 34.1046 80 33V31C80 29.8954 79.1046 29 78 29H69.9996L51.8118 19.9L46.6868 9.65C45.9493 8.175 44.1494 7.5625 42.6619 8.3125C41.1744 9.05 40.5744 10.85 41.3119 12.3375L45.6868 21.075L42.7494 25H37.6245C37.362 25 37.112 24.9 36.9245 24.725L30.0496 18.05C28.4496 16.4625 26.1621 15.7375 23.9747 16.0875C21.7622 16.45 19.8372 17.8625 18.8372 19.8625L15.1123 27.325C14.8219 27.9057 14.6157 28.5135 14.4952 29.1338ZM26.3349 34.0125C25.4297 33.2902 24.4688 32.6347 23.4596 32.0537L27.4996 23.95L32.7495 29.0375C34.062 30.3125 35.787 31.0125 37.6245 31.0125H38.2495L35.9995 34.0125H26.3349ZM31.6253 40C32.3965 41.2585 33.05 42.597 33.5705 44H46.4295C48.7154 37.8389 53.5654 32.9234 59.6833 30.5497L49.7993 25.6L38.9995 40H31.6253Z" fill="#0351C1"/>
<path fill-rule="evenodd" clip-rule="evenodd" d="M24 52C24 58.6274 18.6274 64 12 64C5.37258 64 0 58.6274 0 52C0 45.3726 5.37258 40 12 40C18.6274 40 24 45.3726 24 52ZM18 52C18 55.3137 15.3137 58 12 58C8.68629 58 6 55.3137 6 52C6 48.6863 8.68629 46 12 46C15.3137 46 18 48.6863 18 52Z" fill="#0351C1"/>
<path fill-rule="evenodd" clip-rule="evenodd" d="M68 64C74.6274 64 80 58.6274 80 52C80 45.3726 74.6274 40 68 40C61.3726 40 56 45.3726 56 52C56 58.6274 61.3726 64 68 64ZM68 58C71.3137 58 74 55.3137 74 52C74 48.6863 71.3137 46 68 46C64.6863 46 62 48.6863 62 52C62 55.3137 64.6863 58 68 58Z" fill="#0351C1"/>
</svg>
