<svg width="80" height="64" viewBox="0 0 80 64" fill="none" xmlns="http://www.w3.org/2000/svg">
<path d="M76 20H66V14C66 12.6763 66.44 11.3975 67.2325 10.3588C67.6475 9.815 67.565 9.04125 67.1087 8.53125L65.0813 6.26625C64.4563 5.56875 63.3638 5.6175 62.765 6.33875C60.9912 8.47875 60 11.1888 60 14V20H45.55L38.2775 3.02875C37.485 1.19 35.68 0 33.68 0H17C14.2425 0 12 2.2425 12 5V23.0662C10.5037 23.175 9.10625 23.7812 8.035 24.8525L4.85375 28.0338C3.67375 29.215 3.02375 30.7838 3.02375 32.4538C3.02375 33.0713 3.1125 33.675 3.28375 34.25C1.32875 35.3088 0 37.3775 0 39.75V44.25C0 46.6225 1.32875 48.6912 3.2825 49.75C3.11125 50.325 3.0225 50.9287 3.0225 51.5462C3.0225 53.2162 3.6725 54.785 4.85375 55.965L8.03625 59.1475C9.21625 60.3275 10.7863 60.9775 12.455 60.9787C13.0725 60.9787 13.6763 60.89 14.2513 60.7175C15.3088 62.6712 17.3775 64 19.7512 64H24.2525C26.625 64 28.6925 62.67 29.7512 60.7175C30.3342 60.891 30.9393 60.979 31.5475 60.9787C33.2175 60.9787 34.7875 60.3288 35.9675 59.1475L39.1488 55.9663C40.3288 54.785 40.9787 53.2162 40.9787 51.5462C40.9787 50.9287 40.89 50.325 40.7188 49.75C41.5025 49.325 42.1463 48.705 42.6838 48H52.7363C52.29 49.2562 52.0013 50.59 52.0013 52C52.0013 58.6275 57.3738 64 64.0013 64C70.6288 64 76.0013 58.6275 76.0013 52C76.0013 48.6862 74.6588 45.6862 72.4863 43.515L78.8288 37.1725C79.5788 36.4225 80 35.405 80 34.3438V24C80 21.7913 78.2087 20 76 20ZM18 6H33.0238L39.0213 20H19.7488C19.1413 20 18.555 20.0925 18 20.255V6ZM38 44.25C38 44.3875 37.8875 44.5 37.75 44.5H35.5288C34.6875 47.3213 34.7475 47.1763 33.335 49.7988L34.905 51.3688C34.9888 51.4525 34.9875 51.6387 34.905 51.7212L31.7225 54.9038H31.3687L29.8 53.3338C27.1725 54.7488 27.315 54.6888 24.5 55.5275V57.75C24.5 57.8163 24.4737 57.8799 24.4268 57.9268C24.3799 57.9737 24.3163 58 24.25 58H19.75C19.6125 58 19.5 57.8875 19.5 57.75V55.5288C16.6887 54.69 16.8275 54.75 14.2 53.335L12.63 54.905H12.2762L9.09375 51.7225C9.01 51.6387 9.01 51.4525 9.09375 51.3688L10.6625 49.7988C9.25 47.1763 9.30875 47.3162 8.47 44.5H6.25C6.1125 44.5 6 44.3875 6 44.25V39.75C6 39.6125 6.1125 39.5 6.25 39.5H8.47125C9.3125 36.6787 9.2525 36.8237 10.665 34.2012L9.095 32.6312C9.01125 32.5475 9.0125 32.3613 9.095 32.2788L12.2775 29.0963H12.6313L14.2 30.6663C16.8275 29.2513 16.685 29.3113 19.5 28.4725V26.25C19.5 26.1837 19.5263 26.1201 19.5732 26.0732C19.6201 26.0263 19.6837 26 19.75 26H24.25C24.3875 26 24.5 26.1125 24.5 26.25V28.4713C27.3113 29.3088 27.1725 29.2488 29.8 30.665L31.37 29.095H31.7237L34.9062 32.2775C34.99 32.3613 34.99 32.5475 34.9062 32.6312L33.3375 34.2012C34.75 36.8237 34.6912 36.6838 35.53 39.5H37.75C37.8875 39.5 38 39.6125 38 39.75V44.25ZM64 58C60.6912 58 58 55.3088 58 52C58 48.6912 60.6912 46 64 46C67.3087 46 70 48.6912 70 52C70 55.3088 67.3087 58 64 58ZM74 33.515L67.0687 40.4463C66.0837 40.185 65.0675 40 64 40C61.5513 40 59.28 40.7412 57.3812 42H44V39.75C44 37.3775 42.6712 35.3088 40.7175 34.25C40.8887 33.675 40.9775 33.0713 40.9775 32.4538C40.9775 30.7838 40.3275 29.215 39.1463 28.035L37.1125 26H74V33.515ZM26.4725 35.3662C25.1962 34.5037 23.6562 34 22 34C20.3438 34 18.8038 34.5037 17.5275 35.3662C16.6756 35.9419 15.9419 36.6756 15.3663 37.5275C14.5037 38.8037 14 40.3425 14 42C14 46.4188 17.5812 50 22 50C26.4188 50 30 46.4188 30 42C30 40.3425 29.4963 38.8037 28.6338 37.5275C28.0581 36.6756 27.3244 35.9419 26.4725 35.3662ZM22 44C20.8975 44 20 43.1025 20 42C20 40.8975 20.8975 40 22 40C23.1025 40 24 40.8975 24 42C24 43.1025 23.1025 44 22 44Z" fill="#0351C1"/>
</svg>
