<svg width="80" height="64" viewBox="0 0 80 64" fill="none" xmlns="http://www.w3.org/2000/svg">
<path fill-rule="evenodd" clip-rule="evenodd" d="M49.5 0.000183105C50.8807 0.000183105 52 1.11947 52 2.50018V11.5002H53.1869C58.5859 11.5002 63.1869 15.4185 64.0466 20.7486L65.281 28.402L67.9628 29.3303C72.3521 30.8497 73.4205 36.5813 69.8757 39.5806L60.6054 47.4247C63.5565 53.9162 69.5025 58.0002 78.5 58.0002C79.3284 58.0002 80 58.6718 80 59.5002V62.5002C80 63.3286 79.3284 64.0002 78.5 64.0002C70.853 64.0002 64.2436 61.9142 58.8545 55.6887C58.0495 60.4011 53.9384 64.0002 49 64.0002H31C26.0616 64.0002 21.9505 60.4011 21.1455 55.6887C15.7917 61.8733 9.21025 64.0002 1.5 64.0002C0.671623 64.0002 0 63.3286 0 62.5002V59.5002C0 58.6718 0.671623 58.0002 1.5 58.0002C10.572 58.0002 16.4743 53.8486 19.3948 47.4246L10.1244 39.5804C6.5785 36.5802 7.6495 30.8491 12.0374 29.3302L14.719 28.4019L15.9534 20.7486C16.8131 15.4185 21.414 11.5002 26.8131 11.5002H28V2.50018C28 1.11947 29.1193 0.000183105 30.5 0.000183105H49.5ZM33 11.5002H47V5.00018H33V11.5002ZM26.8131 17.5002C24.359 17.5002 22.2676 19.2812 21.8769 21.704L21.1559 26.1738L38.0372 20.3303C39.3087 19.8902 40.6912 19.8902 41.9626 20.3303L58.8441 26.1739L58.1231 21.704C57.7324 19.2812 55.641 17.5002 53.1869 17.5002H26.8131ZM49 58.0002C51.2091 58.0002 53 56.2093 53 54.0002V46.0002L66 35.0002L40 26.0002L14 35.0002L27 46.0002V54.0002C27 56.2093 28.7909 58.0002 31 58.0002H49Z" fill="#0351C1"/>
</svg>
