<svg width="64" height="64" viewBox="0 0 64 64" fill="none" xmlns="http://www.w3.org/2000/svg">
<path d="M62.9895 13.0002H55.9919L52.9919 10.0002L55.9919 7.00018H62.9883C63.732 7.00018 64.2258 6.21143 63.8945 5.54518C61.9957 1.73018 57.7682 -0.70982 53.0394 0.18518C49.8331 0.79393 47.1993 3.05893 45.908 6.00018H18.1264C16.5789 2.47893 13.1014 0.000180283 9.00884 0.000180283C5.09379 0.000180283 1.7375 2.26518 0.104975 5.54643C-0.226279 6.21268 0.268728 7.00018 1.01124 7.00018H8.00882L11.0089 10.0002L8.00882 13.0002H1.01124C0.267477 13.0002 -0.226279 13.7889 0.104975 14.4552C2.00375 18.2702 6.2313 20.7102 10.9601 19.8152C14.1664 19.2077 16.8014 16.9414 18.0914 14.0002H45.873C47.4206 17.5214 50.8981 20.0002 54.9907 20.0002C58.9057 20.0002 62.262 17.7352 63.8945 14.4527C64.227 13.7889 63.732 13.0002 62.9895 13.0002Z" fill="#0351C1"/>
<path d="M16 40.9989C13.6 40.9989 12 42.5939 12 44.9877C12 47.3814 13.6 48.9764 16 48.9764C16.2911 48.9764 16.5998 48.9823 16.9175 48.9883C19.2202 49.0321 22 49.0849 22 46.9814C22 44.5877 18.4 40.9989 16 40.9989Z" fill="#0351C1"/>
<path d="M48 40.9989C45.6 40.9989 42 44.5889 42 46.9814C42 49.0844 44.7813 49.0318 47.0843 48.9882C47.4014 48.9822 47.7095 48.9764 48 48.9764C50.4 48.9764 52 47.3814 52 44.9877C52 42.5939 50.4 40.9989 48 40.9989Z" fill="#0351C1"/>
<path fill-rule="evenodd" clip-rule="evenodd" d="M55.2762 33.2714L52.0525 25.2664C50.53 21.4802 46.8587 19.0002 42.7775 19.0002H21.2225C17.1412 19.0002 13.47 21.4802 11.9462 25.2652L8.7225 33.2702C4.755 35.2289 2 39.2752 2 44.0002V61.0002C2 62.6564 3.34375 64.0002 5 64.0002H7C8.65625 64.0002 10 62.6564 10 61.0002V58.0002H54V61.0002C54 62.6564 55.3437 64.0002 57 64.0002H59C60.6562 64.0002 62 62.6564 62 61.0002V44.0002C62 39.2752 59.245 35.2289 55.2762 33.2714ZM17.5125 27.5064C18.125 25.9839 19.5825 25.0002 21.2237 25.0002H42.7787C44.42 25.0002 45.8762 25.9839 46.49 27.5064L48.2987 31.9989H15.7037L17.5125 27.5064ZM56 50.0002C56 51.1027 55.1025 52.0002 54 52.0002H10C8.8975 52.0002 8 51.1027 8 50.0002V44.0002C8 40.6914 10.6912 38.0002 14 38.0002H50C53.3087 38.0002 56 40.6914 56 44.0002V50.0002Z" fill="#0351C1"/>
</svg>
