<svg width="77" height="19" viewBox="0 0 77 19" fill="none" xmlns="http://www.w3.org/2000/svg">
<path d="M0.632 18V1.2H11.48V3.672H3.704V8.376H9.992V10.8H3.704V18H0.632ZM18.2428 18.288C16.7548 18.288 15.6028 17.824 14.7868 16.896C13.9868 15.968 13.5868 14.608 13.5868 12.816V6.096H16.6348V12.528C16.6348 13.552 16.8428 14.336 17.2588 14.88C17.6748 15.424 18.3308 15.696 19.2268 15.696C20.0748 15.696 20.7708 15.392 21.3148 14.784C21.8748 14.176 22.1548 13.328 22.1548 12.24V6.096H25.2268V18H22.5148L22.2748 15.984C21.9068 16.688 21.3708 17.248 20.6668 17.664C19.9788 18.08 19.1708 18.288 18.2428 18.288ZM28.3803 18V6.096H31.0923L31.3323 8.112C31.7003 7.408 32.2283 6.848 32.9163 6.432C33.6203 6.016 34.4443 5.808 35.3883 5.808C36.8603 5.808 38.0043 6.272 38.8203 7.2C39.6363 8.128 40.0443 9.488 40.0443 11.28V18H36.9723V11.568C36.9723 10.544 36.7643 9.76 36.3483 9.216C35.9323 8.672 35.2843 8.4 34.4043 8.4C33.5403 8.4 32.8283 8.704 32.2683 9.312C31.7243 9.92 31.4523 10.768 31.4523 11.856V18H28.3803ZM44.6379 4.248C44.0779 4.248 43.6139 4.08 43.2459 3.744C42.8939 3.408 42.7179 2.984 42.7179 2.472C42.7179 1.96 42.8939 1.544 43.2459 1.224C43.6139 0.887999 44.0779 0.719999 44.6379 0.719999C45.1979 0.719999 45.6539 0.887999 46.0059 1.224C46.3739 1.544 46.5579 1.96 46.5579 2.472C46.5579 2.984 46.3739 3.408 46.0059 3.744C45.6539 4.08 45.1979 4.248 44.6379 4.248ZM43.1019 18V6.096H46.1739V18H43.1019ZM49.3803 18V6.096H52.1163L52.4043 8.328C52.8363 7.56 53.4203 6.952 54.1563 6.504C54.9083 6.04 55.7883 5.808 56.7963 5.808V9.048H55.9323C55.2603 9.048 54.6603 9.152 54.1323 9.36C53.6043 9.568 53.1883 9.928 52.8843 10.44C52.5963 10.952 52.4523 11.664 52.4523 12.576V18H49.3803ZM64.397 18.288C63.245 18.288 62.205 18.024 61.277 17.496C60.365 16.968 59.637 16.24 59.093 15.312C58.565 14.368 58.301 13.28 58.301 12.048C58.301 10.816 58.573 9.736 59.117 8.808C59.661 7.864 60.389 7.128 61.301 6.6C62.229 6.072 63.269 5.808 64.421 5.808C65.557 5.808 66.581 6.072 67.493 6.6C68.421 7.128 69.149 7.864 69.677 8.808C70.221 9.736 70.493 10.816 70.493 12.048C70.493 13.28 70.221 14.368 69.677 15.312C69.149 16.24 68.421 16.968 67.493 17.496C66.565 18.024 65.533 18.288 64.397 18.288ZM64.397 15.624C65.197 15.624 65.893 15.328 66.485 14.736C67.077 14.128 67.373 13.232 67.373 12.048C67.373 10.864 67.077 9.976 66.485 9.384C65.893 8.776 65.205 8.472 64.421 8.472C63.605 8.472 62.901 8.776 62.309 9.384C61.733 9.976 61.445 10.864 61.445 12.048C61.445 13.232 61.733 14.128 62.309 14.736C62.901 15.328 63.597 15.624 64.397 15.624ZM74.5597 18.168C73.9997 18.168 73.5357 17.992 73.1677 17.64C72.8157 17.288 72.6397 16.864 72.6397 16.368C72.6397 15.856 72.8157 15.424 73.1677 15.072C73.5357 14.72 73.9997 14.544 74.5597 14.544C75.1197 14.544 75.5757 14.72 75.9277 15.072C76.2957 15.424 76.4797 15.856 76.4797 16.368C76.4797 16.864 76.2957 17.288 75.9277 17.64C75.5757 17.992 75.1197 18.168 74.5597 18.168Z" fill="black"/>
</svg>
