<svg width="87" height="24" viewBox="0 0 87 24" fill="none" xmlns="http://www.w3.org/2000/svg">
<path d="M13.6559 2.00803C13.5439 3.36802 13.4879 4.58402 13.4879 5.65602C13.4879 6.40802 13.5119 7.01603 13.5599 7.48002H13.0079C12.6879 5.67202 12.2079 4.40002 11.5679 3.66402C10.9279 2.92802 10.0319 2.56002 8.87992 2.56002H8.08792C7.59192 2.56002 7.23192 2.60002 7.00792 2.68003C6.78392 2.76003 6.63192 2.92002 6.55192 3.16002C6.47192 3.38402 6.43192 3.75202 6.43192 4.26402V10.312H7.27192C8.11992 10.312 8.75992 10 9.19192 9.37602C9.63992 8.75202 9.95192 8.00802 10.1279 7.14402H10.6799C10.6319 7.81602 10.6079 8.56803 10.6079 9.40003V10.552C10.6079 11.368 10.6559 12.504 10.7519 13.96H10.1999C9.86392 11.848 8.88792 10.792 7.27192 10.792H6.43192V16.312C6.43192 16.952 6.49592 17.424 6.62392 17.728C6.76792 18.016 7.00792 18.208 7.34392 18.304C7.69592 18.4 8.24792 18.456 8.99992 18.472V19C7.03192 18.952 5.56792 18.928 4.60792 18.928C3.80792 18.928 2.79992 18.944 1.58392 18.976L0.815918 19V18.52C1.34392 18.488 1.72792 18.424 1.96792 18.328C2.22392 18.232 2.39192 18.048 2.47192 17.776C2.56792 17.504 2.61592 17.064 2.61592 16.456V4.55202C2.61592 3.94402 2.56792 3.50402 2.47192 3.23203C2.39192 2.96002 2.22392 2.77602 1.96792 2.68003C1.72792 2.58402 1.34392 2.52002 0.815918 2.48802V2.00803C2.54392 2.05602 5.15192 2.08002 8.63992 2.08002C10.9919 2.08002 12.6639 2.05602 13.6559 2.00803Z" fill="#10375C"/>
<path d="M23.035 6.25602C23.755 6.25602 24.299 6.47202 24.667 6.90403C25.035 7.33602 25.219 7.85603 25.219 8.46403C25.219 9.05603 25.043 9.54402 24.691 9.92802C24.355 10.296 23.907 10.48 23.347 10.48C22.803 10.48 22.371 10.344 22.051 10.072C21.731 9.78403 21.571 9.40803 21.571 8.94403C21.571 8.17603 21.923 7.55203 22.627 7.07203C22.563 7.05603 22.467 7.04802 22.339 7.04802C22.179 7.04802 22.051 7.06402 21.955 7.09602C21.347 7.19202 20.827 7.56002 20.395 8.20002C19.979 8.84002 19.771 9.49602 19.771 10.168V16.528C19.771 17.264 19.947 17.776 20.299 18.064C20.667 18.352 21.243 18.496 22.027 18.496V19C21.803 19 21.619 18.992 21.475 18.976C19.843 18.928 18.755 18.904 18.211 18.904C17.779 18.904 16.795 18.928 15.259 18.976C15.131 18.992 14.971 19 14.779 19V18.496C15.355 18.496 15.755 18.376 15.979 18.136C16.203 17.88 16.315 17.424 16.315 16.768V9.20802C16.315 8.47202 16.203 7.93602 15.979 7.60002C15.755 7.26402 15.355 7.09602 14.779 7.09602V6.59202C15.291 6.64003 15.787 6.66403 16.267 6.66403C17.691 6.66403 18.859 6.55203 19.771 6.32803V8.56002C20.075 7.87202 20.515 7.32002 21.091 6.90403C21.667 6.47202 22.315 6.25602 23.035 6.25602Z" fill="#10375C"/>
<path d="M29.1022 0.400024C29.7742 0.400024 30.3022 0.568025 30.6862 0.904025C31.0862 1.22402 31.2862 1.67202 31.2862 2.24802C31.2862 2.82402 31.0862 3.28002 30.6862 3.61602C30.3022 3.93602 29.7742 4.09602 29.1022 4.09602C28.4302 4.09602 27.8942 3.93602 27.4942 3.61602C27.1102 3.28002 26.9182 2.82402 26.9182 2.24802C26.9182 1.67202 27.1102 1.22402 27.4942 0.904025C27.8942 0.568025 28.4302 0.400024 29.1022 0.400024ZM30.9742 16.768C30.9742 17.424 31.0862 17.88 31.3102 18.136C31.5502 18.376 31.9502 18.496 32.5102 18.496V19C30.9102 18.936 29.8462 18.904 29.3182 18.904C28.8222 18.904 27.7102 18.936 25.9822 19V18.496C26.5582 18.496 26.9582 18.376 27.1822 18.136C27.4062 17.88 27.5182 17.424 27.5182 16.768V9.20802C27.5182 8.47202 27.4062 7.93602 27.1822 7.60002C26.9582 7.26402 26.5582 7.09602 25.9822 7.09602V6.59202C26.4942 6.64003 26.9902 6.66403 27.4702 6.66403C28.8942 6.66403 30.0622 6.55203 30.9742 6.32803V16.768Z" fill="#10375C"/>
<path d="M38.3045 6.25602C38.9125 6.25602 39.4725 6.33602 39.9845 6.49602C40.4965 6.64002 40.8885 6.80802 41.1605 7.00003C41.3205 7.11202 41.4645 7.16802 41.5925 7.16802C41.7365 7.16802 41.8565 7.09602 41.9525 6.95202C42.0645 6.79202 42.1365 6.56802 42.1685 6.28002H42.6725C42.6085 7.09602 42.5765 8.50402 42.5765 10.504H42.0725C41.9285 9.44803 41.6085 8.56803 41.1125 7.86403C40.6325 7.14403 39.9285 6.78403 39.0005 6.78403C38.5205 6.78403 38.1205 6.92003 37.8005 7.19203C37.4965 7.46403 37.3445 7.84002 37.3445 8.32002C37.3445 8.86402 37.5285 9.33602 37.8965 9.73602C38.2645 10.12 38.8405 10.592 39.6245 11.152L40.3205 11.656C41.2965 12.392 42.0165 13.048 42.4805 13.624C42.9445 14.2 43.1765 14.92 43.1765 15.784C43.1765 16.488 42.9685 17.112 42.5525 17.656C42.1525 18.2 41.6085 18.616 40.9205 18.904C40.2325 19.192 39.4725 19.336 38.6405 19.336C37.7605 19.336 37.0085 19.168 36.3845 18.832C35.8725 18.576 35.5045 18.408 35.2805 18.328C35.1205 18.28 34.9765 18.336 34.8485 18.496C34.7365 18.64 34.6485 18.864 34.5845 19.168H34.0805C34.1445 18.256 34.1765 16.656 34.1765 14.368H34.6805C35.0005 17.312 36.0805 18.784 37.9205 18.784C38.3845 18.784 38.7765 18.648 39.0965 18.376C39.4325 18.088 39.6005 17.656 39.6005 17.08C39.6005 16.632 39.4965 16.232 39.2885 15.88C39.0965 15.528 38.8485 15.216 38.5445 14.944C38.2405 14.672 37.7845 14.296 37.1765 13.816C36.4565 13.24 35.9045 12.776 35.5205 12.424C35.1525 12.072 34.8325 11.656 34.5605 11.176C34.3045 10.696 34.1765 10.16 34.1765 9.56803C34.1765 8.54403 34.5765 7.73602 35.3765 7.14402C36.1765 6.55202 37.1525 6.25602 38.3045 6.25602Z" fill="#10375C"/>
<path d="M53.2544 6.25602C54.0864 6.25602 54.8224 6.48002 55.4624 6.92802C56.1184 7.37602 56.6304 8.04803 56.9984 8.94403C57.3664 9.84003 57.5504 10.936 57.5504 12.232C57.5504 14.52 57.0464 16.28 56.0384 17.512C55.0464 18.728 53.6944 19.336 51.9824 19.336C51.5024 19.336 51.0464 19.272 50.6144 19.144C50.1984 19.016 49.8384 18.824 49.5344 18.568V20.968C49.5344 21.672 49.7104 22.16 50.0624 22.432C50.4144 22.704 50.9584 22.84 51.6944 22.84V23.344L51.0464 23.32C49.2704 23.272 48.1424 23.248 47.6624 23.248C47.1824 23.248 46.1744 23.28 44.6384 23.344V22.84C45.1664 22.84 45.5344 22.72 45.7424 22.48C45.9664 22.256 46.0784 21.832 46.0784 21.208V9.20802C46.0784 8.47202 45.9584 7.93602 45.7184 7.60002C45.4944 7.26402 45.1024 7.09602 44.5424 7.09602V6.59202C45.0544 6.64003 45.5504 6.66403 46.0304 6.66403C47.4224 6.66403 48.5904 6.55203 49.5344 6.32803V8.53603C49.8704 7.80002 50.3584 7.24002 50.9984 6.85602C51.6384 6.45602 52.3904 6.25602 53.2544 6.25602ZM51.0464 18.688C52.0704 18.688 52.8064 18.184 53.2544 17.176C53.7024 16.152 53.9264 14.664 53.9264 12.712C53.9264 10.76 53.7424 9.36803 53.3744 8.53603C53.0224 7.70402 52.5104 7.28802 51.8384 7.28802C51.2944 7.28802 50.8064 7.47202 50.3744 7.84002C49.9584 8.20802 49.6784 8.72002 49.5344 9.37602V18.04C49.9184 18.472 50.4224 18.688 51.0464 18.688Z" fill="#10375C"/>
<path d="M66.085 17.368C67.397 17.368 68.453 16.728 69.253 15.448L69.685 15.592C69.365 16.632 68.789 17.52 67.957 18.256C67.141 18.976 66.117 19.336 64.885 19.336C63.189 19.336 61.837 18.8 60.829 17.728C59.837 16.64 59.341 15.04 59.341 12.928C59.341 10.768 59.877 9.12003 60.949 7.98403C62.021 6.83203 63.445 6.25602 65.221 6.25602C68.229 6.25602 69.733 8.03202 69.733 11.584H62.989C62.973 11.824 62.965 12.2 62.965 12.712C62.965 13.768 63.109 14.648 63.397 15.352C63.701 16.056 64.085 16.568 64.549 16.888C65.029 17.208 65.541 17.368 66.085 17.368ZM65.077 6.76002C64.501 6.76002 64.021 7.12002 63.637 7.84002C63.269 8.54402 63.037 9.64002 62.941 11.128H66.709C66.741 9.86403 66.613 8.82402 66.325 8.00802C66.053 7.17602 65.637 6.76002 65.077 6.76002Z" fill="#10375C"/>
<path d="M75.8748 6.25602C76.4828 6.25602 77.0428 6.33602 77.5548 6.49602C78.0668 6.64002 78.4588 6.80802 78.7308 7.00003C78.8908 7.11202 79.0348 7.16802 79.1628 7.16802C79.3068 7.16802 79.4268 7.09602 79.5228 6.95202C79.6348 6.79202 79.7068 6.56802 79.7388 6.28002H80.2428C80.1788 7.09602 80.1468 8.50402 80.1468 10.504H79.6428C79.4988 9.44803 79.1788 8.56803 78.6828 7.86403C78.2028 7.14403 77.4988 6.78403 76.5708 6.78403C76.0908 6.78403 75.6908 6.92003 75.3708 7.19203C75.0668 7.46403 74.9148 7.84002 74.9148 8.32002C74.9148 8.86402 75.0988 9.33602 75.4668 9.73602C75.8348 10.12 76.4108 10.592 77.1948 11.152L77.8908 11.656C78.8668 12.392 79.5868 13.048 80.0508 13.624C80.5148 14.2 80.7468 14.92 80.7468 15.784C80.7468 16.488 80.5388 17.112 80.1228 17.656C79.7228 18.2 79.1788 18.616 78.4908 18.904C77.8028 19.192 77.0428 19.336 76.2108 19.336C75.3308 19.336 74.5788 19.168 73.9548 18.832C73.4428 18.576 73.0748 18.408 72.8508 18.328C72.6908 18.28 72.5468 18.336 72.4188 18.496C72.3068 18.64 72.2188 18.864 72.1548 19.168H71.6508C71.7148 18.256 71.7468 16.656 71.7468 14.368H72.2508C72.5708 17.312 73.6508 18.784 75.4908 18.784C75.9548 18.784 76.3468 18.648 76.6668 18.376C77.0028 18.088 77.1708 17.656 77.1708 17.08C77.1708 16.632 77.0668 16.232 76.8588 15.88C76.6668 15.528 76.4188 15.216 76.1148 14.944C75.8108 14.672 75.3548 14.296 74.7468 13.816C74.0268 13.24 73.4748 12.776 73.0908 12.424C72.7228 12.072 72.4028 11.656 72.1308 11.176C71.8748 10.696 71.7468 10.16 71.7468 9.56803C71.7468 8.54403 72.1468 7.73602 72.9468 7.14402C73.7468 6.55202 74.7228 6.25602 75.8748 6.25602Z" fill="#10375C"/>
<path d="M84.8727 15.64C85.4967 15.64 85.9927 15.808 86.3607 16.144C86.7287 16.464 86.9127 16.912 86.9127 17.488C86.9127 18.064 86.7287 18.52 86.3607 18.856C85.9927 19.176 85.4967 19.336 84.8727 19.336C84.2487 19.336 83.7527 19.176 83.3847 18.856C83.0167 18.52 82.8327 18.064 82.8327 17.488C82.8327 16.912 83.0167 16.464 83.3847 16.144C83.7527 15.808 84.2487 15.64 84.8727 15.64Z" fill="#10375C"/>
</svg>
