<svg width="127" height="46" viewBox="0 0 127 46" fill="none" xmlns="http://www.w3.org/2000/svg">
<path d="M14 32H0V0H32V14H28V4H18V14H14V4H4V14H14V18H4V28H14V32Z" fill="#59C802"/>
<path d="M32 14L46 14L46 46L14 46L14 32L18 32L18 42L28 42L28 32L32 32L32 42L42 42L42 32L32 32L32 28L42 28L42 18L32 18L32 14Z" fill="#199EFF"/>
<path fill-rule="evenodd" clip-rule="evenodd" d="M32 32H14V14H32V32ZM28 28H18V18H28V28Z" fill="#FAB938"/>
<path d="M60.8182 26.1761C60 26.1761 59.286 25.9886 58.6761 25.6136C58.0663 25.2386 57.5928 24.714 57.2557 24.0398C56.9186 23.3655 56.75 22.5776 56.75 21.6761C56.75 20.7708 56.9186 19.9792 57.2557 19.3011C57.5928 18.6231 58.0663 18.0966 58.6761 17.7216C59.286 17.3466 60 17.1591 60.8182 17.1591C61.6364 17.1591 62.3504 17.3466 62.9602 17.7216C63.5701 18.0966 64.0436 18.6231 64.3807 19.3011C64.7178 19.9792 64.8864 20.7708 64.8864 21.6761C64.8864 22.5776 64.7178 23.3655 64.3807 24.0398C64.0436 24.714 63.5701 25.2386 62.9602 25.6136C62.3504 25.9886 61.6364 26.1761 60.8182 26.1761ZM60.8239 24.75C61.3542 24.75 61.7936 24.6098 62.142 24.3295C62.4905 24.0492 62.7481 23.6761 62.9148 23.2102C63.0852 22.7443 63.1705 22.2311 63.1705 21.6705C63.1705 21.1136 63.0852 20.6023 62.9148 20.1364C62.7481 19.6667 62.4905 19.2898 62.142 19.0057C61.7936 18.7216 61.3542 18.5795 60.8239 18.5795C60.2898 18.5795 59.8466 18.7216 59.4943 19.0057C59.1458 19.2898 58.8864 19.6667 58.7159 20.1364C58.5492 20.6023 58.4659 21.1136 58.4659 21.6705C58.4659 22.2311 58.5492 22.7443 58.7159 23.2102C58.8864 23.6761 59.1458 24.0492 59.4943 24.3295C59.8466 24.6098 60.2898 24.75 60.8239 24.75Z" fill="#8A9EA8"/>
<path d="M66.7827 26V17.2727H68.4815V20.9318H69.2997L72.1804 17.2727H74.2827L70.902 21.517L74.3224 26H72.2145L69.5838 22.5114H68.4815V26H66.7827Z" fill="#8A9EA8"/>
<path d="M81.5568 20.9034V22.375H76.8295V20.9034H81.5568ZM77.3068 17.2727V26H75.642V17.2727H77.3068ZM82.7443 17.2727V26H81.0852V17.2727H82.7443Z" fill="#8A9EA8"/>
<path d="M87.5568 26.1932C87.0038 26.1932 86.5038 26.0909 86.0568 25.8864C85.6098 25.678 85.2557 25.3769 84.9943 24.983C84.7367 24.589 84.608 24.1061 84.608 23.5341C84.608 23.0417 84.7027 22.6364 84.892 22.3182C85.0814 22 85.3371 21.7481 85.6591 21.5625C85.9811 21.3769 86.3409 21.2367 86.7386 21.142C87.1364 21.0473 87.5417 20.9754 87.9545 20.9261C88.4773 20.8655 88.9015 20.8163 89.2273 20.7784C89.553 20.7367 89.7898 20.6705 89.9375 20.5795C90.0852 20.4886 90.1591 20.3409 90.1591 20.1364V20.0966C90.1591 19.6004 90.0189 19.2159 89.7386 18.9432C89.4621 18.6705 89.0492 18.5341 88.5 18.5341C87.928 18.5341 87.4773 18.661 87.1477 18.9148C86.822 19.1648 86.5966 19.4432 86.4716 19.75L84.875 19.3864C85.0644 18.8561 85.3409 18.428 85.7045 18.1023C86.072 17.7727 86.4943 17.5341 86.9716 17.3864C87.4489 17.2348 87.9508 17.1591 88.4773 17.1591C88.8258 17.1591 89.1951 17.2008 89.5852 17.2841C89.9792 17.3636 90.3466 17.5114 90.6875 17.7273C91.0322 17.9432 91.3144 18.2519 91.5341 18.6534C91.7538 19.0511 91.8636 19.5682 91.8636 20.2045V26H90.2045V24.8068H90.1364C90.0265 25.0265 89.8617 25.2424 89.642 25.4545C89.4223 25.6667 89.1402 25.8428 88.7955 25.983C88.4508 26.1231 88.0379 26.1932 87.5568 26.1932ZM87.9261 24.8295C88.3958 24.8295 88.7974 24.7367 89.1307 24.5511C89.4678 24.3655 89.7235 24.1231 89.8977 23.8239C90.0758 23.5208 90.1648 23.197 90.1648 22.8523V21.7273C90.1042 21.7879 89.9867 21.8447 89.8125 21.8977C89.642 21.947 89.447 21.9905 89.2273 22.0284C89.0076 22.0625 88.7936 22.0947 88.5852 22.125C88.3769 22.1515 88.2027 22.1742 88.0625 22.1932C87.733 22.2348 87.4318 22.3049 87.1591 22.4034C86.8902 22.5019 86.6742 22.6439 86.5114 22.8295C86.3523 23.0114 86.2727 23.2538 86.2727 23.5568C86.2727 23.9773 86.428 24.2955 86.7386 24.5114C87.0492 24.7235 87.4451 24.8295 87.9261 24.8295Z" fill="#8A9EA8"/>
<path d="M63.4318 44.2472C62.0511 44.2472 60.8665 43.9631 59.8778 43.3949C58.8949 42.8267 58.1392 42.0369 57.6108 41.0256C57.0824 40.0085 56.8182 38.8324 56.8182 37.4972C56.8182 36.1563 57.0824 34.9801 57.6108 33.9688C58.1449 32.9517 58.9034 32.1591 59.8864 31.5909C60.875 31.0227 62.054 30.7386 63.4233 30.7386C64.6335 30.7386 65.6875 30.9574 66.5852 31.3949C67.4886 31.8324 68.1932 32.4517 68.6989 33.2529C69.2102 34.0483 69.4801 34.983 69.5085 36.0568H65.6136C65.5341 35.3864 65.3068 34.8608 64.9318 34.4801C64.5625 34.0994 64.0795 33.9091 63.4829 33.9091C63 33.9091 62.5767 34.0455 62.2131 34.3182C61.8494 34.5852 61.5653 34.983 61.3608 35.5114C61.1619 36.0341 61.0625 36.6818 61.0625 37.4546C61.0625 38.2273 61.1619 38.8807 61.3608 39.4148C61.5653 39.9432 61.8494 40.3438 62.2131 40.6165C62.5767 40.8835 63 41.0171 63.4829 41.0171C63.8693 41.0171 64.2102 40.9347 64.5057 40.7699C64.8068 40.6051 65.054 40.3636 65.2472 40.0455C65.4403 39.7216 65.5625 39.3296 65.6136 38.8693H69.5085C69.4687 39.9489 69.1989 40.8921 68.6989 41.6989C68.2045 42.5057 67.5085 43.1335 66.6108 43.5824C65.7187 44.0256 64.6591 44.2472 63.4318 44.2472Z" fill="#2B363B"/>
<path d="M70.8125 34.0966V30.9091H83.0852V34.0966H78.9006V44H74.946V34.0966H70.8125Z" fill="#2B363B"/>
<path d="M89.017 38.6051L93.2017 30.9091H97.2074V44H93.2614V36.2784L89.0852 44H85.071V30.9091H89.017V38.6051Z" fill="#2B363B"/>
<path d="M99.2209 44L99.1953 40.7869H99.6129C99.897 40.7869 100.144 40.7131 100.354 40.5654C100.565 40.4176 100.741 40.1818 100.883 39.858C101.025 39.5284 101.138 39.1051 101.224 38.5881C101.309 38.071 101.363 37.4432 101.386 36.7046L101.599 30.9091H111.962V44H108.016V34.0966H105.306L105.102 37.8636C105.05 38.9716 104.906 39.9176 104.667 40.7017C104.434 41.4801 104.116 42.1108 103.712 42.5938C103.315 43.0767 102.843 43.4318 102.298 43.6591C101.752 43.8864 101.136 44 100.448 44H99.2209Z" fill="#2B363B"/>
<path d="M116.955 34.6932H120.926C122.727 34.6932 124.139 35.1165 125.162 35.9631C126.185 36.804 126.699 37.946 126.705 39.3892C126.699 40.3267 126.463 41.1421 125.997 41.8352C125.537 42.5227 124.875 43.0568 124.011 43.4375C123.153 43.8125 122.125 44 120.926 44H114.509V30.9091H118.455V40.8125H120.926C121.472 40.8125 121.92 40.679 122.273 40.4119C122.625 40.1449 122.804 39.8011 122.81 39.3807C122.804 38.9375 122.625 38.5767 122.273 38.2983C121.92 38.0199 121.472 37.8807 120.926 37.8807H116.955V34.6932Z" fill="#2B363B"/>
</svg>
