<svg width="36" height="48" viewBox="0 0 36 48" fill="none" xmlns="http://www.w3.org/2000/svg">
<path d="M18 0C8.05341 0 0 8.06382 0 18C0 24.6672 2.24916 26.7507 14.1817 45.8835C15.9428 48.7072 20.0592 48.7038 21.8183 45.8835C33.757 26.7407 36 24.6659 36 18C36 8.05341 27.9362 0 18 0ZM18 43.5C6.054 24.3456 4.5 23.1364 4.5 18C4.5 10.5442 10.5442 4.5 18 4.5C25.4559 4.5 31.5 10.5442 31.5 18C31.5 23.1144 30.0782 24.1336 18 43.5ZM10.5 18C10.5 13.8579 13.8579 10.5 18 10.5C22.1422 10.5 25.5 13.8579 25.5 18C25.5 22.1422 22.1422 25.5 18 25.5C13.8579 25.5 10.5 22.1422 10.5 18Z" fill="#FF7A2F"/>
</svg>
