<svg width="32" height="32" viewBox="0 0 32 32" fill="none" xmlns="http://www.w3.org/2000/svg">
<path fill-rule="evenodd" clip-rule="evenodd" d="M15.2929 11.2929C15.6834 10.9024 16.3166 10.9024 16.7071 11.2929L20.7071 15.2929C21.0976 15.6834 21.0976 16.3166 20.7071 16.7071L16.7071 20.7071C16.3166 21.0976 15.6834 21.0976 15.2929 20.7071C14.9024 20.3166 14.9024 19.6834 15.2929 19.2929L17.5858 17H12C11.4477 17 11 16.5523 11 16C11 15.4477 11.4477 15 12 15H17.5858L15.2929 12.7071C14.9024 12.3166 14.9024 11.6834 15.2929 11.2929Z" fill="#2B363B"/>
<rect x="1" y="1" width="30" height="30" rx="15" stroke="#FAB938" stroke-width="2"/>
</svg>
