<svg width="45" height="48" viewBox="0 0 45 48" fill="none" xmlns="http://www.w3.org/2000/svg">
<path d="M13.8 21.6091C13.3594 21.1685 12.6469 21.1685 12.2062 21.5998L10.0781 23.7094C9.6375 24.15 9.6375 24.8626 10.0688 25.3033L18.5812 33.8822C19.0219 34.3229 19.7344 34.3229 20.175 33.8916L36.3562 17.84C36.7969 17.3994 36.7969 16.6868 36.3656 16.2461L34.2562 14.1178C33.8156 13.6771 33.1031 13.6771 32.6625 14.1084L19.4062 27.2534L13.8 21.6091ZM42.2344 7.8453L24.2344 0.344571C23.6861 0.117091 23.0983 0 22.5047 0C21.9111 0 21.3233 0.117091 20.775 0.344571L2.775 7.8453C1.09687 8.53912 0 10.1799 0 11.9988C0 30.61 10.7344 43.4738 20.7656 47.6554C21.8719 48.1149 23.1187 48.1149 24.225 47.6554C32.2594 44.3082 45 32.7477 45 11.9988C45 10.1799 43.9031 8.53912 42.2344 7.8453ZM22.5 43.5019C13.3594 39.6953 4.5 27.8723 4.5 11.9988L22.5 4.4981L40.5 11.9988C40.5 28.2942 31.275 39.8453 22.5 43.5019Z" fill="#FF7A2F"/>
</svg>
