<svg width="42" height="48" viewBox="0 0 42 48" fill="none" xmlns="http://www.w3.org/2000/svg">
<path d="M21 27C28.4531 27 34.5 20.9531 34.5 13.5C34.5 6.04688 28.4531 0 21 0C13.5469 0 7.5 6.04688 7.5 13.5C7.5 20.9531 13.5469 27 21 27ZM21 4.5C25.9594 4.5 30 8.54062 30 13.5C30 18.4594 25.9594 22.5 21 22.5C16.0406 22.5 12 18.4594 12 13.5C12 8.54062 16.0406 4.5 21 4.5ZM29.6156 28.5188L24.3187 43.0031L22.5 35.25L25.5 30H16.5L19.5 35.25L17.6719 43.0031L12.375 28.5188C5.52188 28.6406 0 34.2188 0 41.1V43.5C0 45.9844 2.01562 48 4.5 48H37.5C39.9844 48 42 45.9844 42 43.5V41.1C42 34.2188 36.4781 28.6406 29.6156 28.5188ZM9 43.5H4.5V41.1C4.5 37.7812 6.55312 34.8937 9.46875 33.6562L13.0687 43.5H9ZM37.5 43.5H28.9406L32.5312 33.6562C35.4375 34.8937 37.5 37.7812 37.5 41.1V43.5Z" fill="#FF7A2F"/>
</svg>
