<svg width="25" height="20" viewBox="0 0 25 20" fill="none" xmlns="http://www.w3.org/2000/svg">
<path d="M25 8.75V10C25 10.1658 24.9342 10.3247 24.8169 10.4419C24.6997 10.5592 24.5408 10.625 24.375 10.625H21.875V13.125C21.875 13.2908 21.8092 13.4497 21.6919 13.5669C21.5747 13.6842 21.4158 13.75 21.25 13.75H20C19.8342 13.75 19.6753 13.6842 19.5581 13.5669C19.4408 13.4497 19.375 13.2908 19.375 13.125V10.625H16.875C16.7092 10.625 16.5503 10.5592 16.4331 10.4419C16.3158 10.3247 16.25 10.1658 16.25 10V8.75C16.25 8.58424 16.3158 8.42527 16.4331 8.30806C16.5503 8.19085 16.7092 8.125 16.875 8.125H19.375V5.625C19.375 5.45924 19.4408 5.30027 19.5581 5.18306C19.6753 5.06585 19.8342 5 20 5H21.25C21.4158 5 21.5747 5.06585 21.6919 5.18306C21.8092 5.30027 21.875 5.45924 21.875 5.625V8.125H24.375C24.5408 8.125 24.6997 8.19085 24.8169 8.30806C24.9342 8.42527 25 8.58424 25 8.75Z" fill="#0351C1"/>
<path d="M8.75 10C9.73891 10 10.7056 9.70676 11.5278 9.15735C12.3501 8.60794 12.991 7.82705 13.3694 6.91342C13.7478 5.99979 13.8469 4.99446 13.6539 4.02455C13.461 3.05465 12.9848 2.16373 12.2855 1.46447C11.5863 0.765206 10.6954 0.289002 9.72545 0.0960758C8.75555 -0.0968502 7.75021 0.00216641 6.83658 0.380605C5.92295 0.759043 5.14206 1.39991 4.59265 2.22215C4.04324 3.0444 3.75 4.0111 3.75 5C3.75 6.32608 4.27678 7.59785 5.21447 8.53554C6.15215 9.47322 7.42392 10 8.75 10ZM12.25 11.25H11.5977C10.7048 11.6618 9.73324 11.875 8.75 11.875C7.76676 11.875 6.79521 11.6618 5.90234 11.25H5.25C3.85771 11.2503 2.52253 11.8035 1.53803 12.788C0.553534 13.7725 0.000310675 15.1077 0 16.5L0 18.125C0 18.6223 0.197544 19.0992 0.549175 19.4508C0.900805 19.8025 1.37772 20 1.875 20H15.625C16.1223 20 16.5992 19.8025 16.9508 19.4508C17.3025 19.0992 17.5 18.6223 17.5 18.125V16.5C17.4997 15.1077 16.9465 13.7725 15.962 12.788C14.9775 11.8035 13.6423 11.2503 12.25 11.25Z" fill="#FF7A2F"/>
</svg>
