<svg width="177" height="31" viewBox="0 0 177 31" fill="none" xmlns="http://www.w3.org/2000/svg">
<g clip-path="url(#clip0)">
<path d="M0 14.8542C0 7.85185 0 4.35068 2.17585 2.17534C4.35171 0 7.8537 0 14.8577 0H16.1496C23.1536 0 26.6556 0 28.8314 2.17534C31.0073 4.35068 31.0073 7.85185 31.0073 14.8542V16.1458C31.0073 23.1482 31.0073 26.6493 28.8314 28.8246C26.6556 31 23.1536 31 16.1496 31H14.8577C7.8537 31 4.35171 31 2.17585 28.8246C0 26.6493 0 23.1482 0 16.1458L0 14.8542Z" fill="#2787F5"/>
<path fill-rule="evenodd" clip-rule="evenodd" d="M8.39841 9.6875H6.13695C5.49081 9.6875 5.36157 9.99156 5.36157 10.3267C5.36157 10.9255 6.12827 13.895 8.93142 17.8224C10.8002 20.5044 13.4331 21.9583 15.829 21.9583C17.2665 21.9583 17.4443 21.6354 17.4443 21.0792V19.0521C17.4443 18.4062 17.5805 18.2773 18.0357 18.2773C18.3711 18.2773 18.9461 18.445 20.2878 19.7382C21.8212 21.2708 22.074 21.9583 22.9364 21.9583H25.1979C25.8441 21.9583 26.1671 21.6354 25.9808 20.9982C25.7768 20.3631 25.0447 19.4415 24.0733 18.3492C23.5462 17.7266 22.7556 17.0561 22.516 16.7208C22.1806 16.2897 22.2764 16.0981 22.516 15.715C22.516 15.715 25.2712 11.8355 25.5587 10.5184C25.7025 10.0394 25.5588 9.6875 24.8748 9.6875H22.6134C22.0384 9.6875 21.7733 9.99156 21.6295 10.3267C21.6295 10.3267 20.4795 13.1286 18.8503 14.9487C18.3232 15.4755 18.0836 15.6431 17.7961 15.6431C17.6523 15.6431 17.4443 15.4755 17.4443 14.9966V10.5184C17.4443 9.94364 17.2774 9.6875 16.7982 9.6875H13.2444C12.8851 9.6875 12.669 9.95423 12.669 10.2071C12.669 10.7519 13.4835 10.8776 13.5675 12.4102V15.739C13.5675 16.4687 13.4356 16.6011 13.1481 16.6011C12.3815 16.6011 10.5166 13.7867 9.41054 10.5663C9.19381 9.94034 8.97638 9.6875 8.39841 9.6875Z" fill="white"/>
<path d="M52.9016 15.2282C54.1313 14.6546 54.9237 13.6984 54.9237 12.2232C54.9237 9.98305 52.8743 8.39856 49.9232 8.39856H43.1192V22.6043H50.2237C53.2842 22.6043 55.4155 20.9379 55.4155 18.6704C55.4155 16.9493 54.2952 15.6653 52.9016 15.2282ZM46.2616 10.9938H49.9232C51.0162 10.9938 51.7813 11.6495 51.7813 12.551C51.7813 13.4525 51.0162 14.0809 49.9232 14.0809H46.2616V10.9938ZM50.2237 20.009H46.2616V16.5395H50.2237C51.4534 16.5395 52.2731 17.2498 52.2731 18.2879C52.2731 19.3261 51.4534 20.009 50.2237 20.009Z" fill="black"/>
<path d="M67.1024 22.6043H71.2283L64.6973 15.2282L70.6818 8.39856H66.9383L62.1836 13.9169H61.4185V8.39856H58.2761V22.6043H61.4185V16.9493H62.1836L67.1024 22.6043Z" fill="black"/>
<path d="M79.2489 22.8775C83.7029 22.8775 86.8456 19.8178 86.8456 15.5014C86.8456 11.1851 83.7029 8.12537 79.2489 8.12537C74.7948 8.12537 71.6527 11.1851 71.6527 15.5014C71.6527 19.8178 74.7948 22.8775 79.2489 22.8775ZM79.2489 20.009C76.6804 20.009 74.9317 18.1787 74.9317 15.5014C74.9317 12.8242 76.6804 10.9938 79.2489 10.9938C81.8179 10.9938 83.5666 12.8242 83.5666 15.5014C83.5666 18.1787 81.8179 20.009 79.2489 20.009Z" fill="black"/>
<path d="M99.0864 8.39856V13.9989H92.7196V8.39856H89.5775V22.6043H92.7196V16.8674H99.0864V22.6043H102.229V8.39856H99.0864Z" fill="black"/>
<path d="M109.327 22.6043H112.47V11.267H117.388V8.39856H104.409V11.267H109.327V22.6043Z" fill="black"/>
<path d="M124.83 8.12537C122.071 8.12537 119.638 9.54594 118.928 12.0046L121.824 12.4964C122.262 11.6222 123.246 10.8026 124.666 10.8026C126.388 10.8026 127.399 12.0319 127.536 13.8896H124.475C120.294 13.8896 118.217 15.72 118.217 18.3426C118.217 20.9925 120.267 22.8775 123.164 22.8775C125.486 22.8775 127.043 21.5389 127.727 20.3642L128.382 22.6043H130.705V14.6272C130.705 10.5021 128.465 8.12537 124.83 8.12537ZM123.901 20.2276C122.371 20.2276 121.387 19.4353 121.387 18.206C121.387 17.1132 122.18 16.3483 124.584 16.3483H127.563C127.563 18.6704 126.087 20.2276 123.901 20.2276Z" fill="black"/>
<path d="M142.94 22.6043H147.066L140.535 15.2282L146.52 8.39856H142.776L138.022 13.9169H137.256V8.39856H134.114V22.6043H137.256V16.9493H138.022L142.94 22.6043Z" fill="black"/>
<path d="M152.396 22.6043H155.539V11.267H160.458V8.39856H147.478V11.267H152.396V22.6043Z" fill="black"/>
<path d="M176.043 15.3375C176.043 11.2397 172.982 8.12537 168.665 8.12537C164.347 8.12537 161.287 11.2124 161.287 15.5014C161.287 19.7905 164.347 22.8775 168.665 22.8775C171.616 22.8775 174.403 21.4842 175.468 18.7797L172.517 18.2879C171.834 19.2987 170.523 20.009 168.856 20.009C166.451 20.009 164.866 18.5338 164.566 16.3483H175.988C176.015 16.0478 176.043 15.72 176.043 15.3375ZM168.665 10.8572C170.632 10.8572 172.107 12.1139 172.627 13.8896H164.757C165.276 12.0593 166.752 10.8572 168.665 10.8572Z" fill="black"/>
</g>
<defs>
<clipPath id="clip0">
<rect width="177" height="31" fill="white"/>
</clipPath>
</defs>
</svg>
